<?xml version="1.0" encoding="utf-8"?>
<svg viewBox="39.202 70.022 444.55 239.717" xmlns="http://www.w3.org/2000/svg">
  <defs>
    <radialGradient gradientUnits="userSpaceOnUse" cx="176.583" cy="236.045" r="199.652" id="gradient-0" spreadMethod="pad" gradientTransform="matrix(0.721555, 0.342256, -0.238318, 0.594978, 65.217814, -16.490402)">
      <stop offset="0" style="stop-color: rgba(121, 122, 118, 1)"/>
      <stop offset="1" style="stop-color: rgba(70, 70, 68, 1)"/>
    </radialGradient>
    <radialGradient gradientUnits="userSpaceOnUse" cx="180.619" cy="108.226" r="146.391" id="gradient-1" gradientTransform="matrix(1.108398, 0.418983, -0.18295, 0.618535, -65.212443, -40.790777)" spreadMethod="pad">
      <stop offset="0" style="stop-color: rgba(210, 5, 5, 1)"/>
      <stop offset="1" style="stop-color: rgba(111, 3, 3, 1)"/>
    </radialGradient>
    <linearGradient gradientUnits="userSpaceOnUse" x1="374.041" y1="193.16" x2="374.041" y2="201.159" id="gradient-2" gradientTransform="matrix(-0.035078, -0.999808, 7.117257, -0.029849, -977.008005, 567.584155)">
      <stop offset="0" style="stop-color: rgba(250, 129, 8, 1)"/>
      <stop offset="1" style="stop-color: rgba(250, 129, 8, 0);"/>
    </linearGradient>
    <linearGradient gradientUnits="userSpaceOnUse" x1="268.428" y1="216.923" x2="268.428" y2="224.922" id="gradient-3" gradientTransform="matrix(-0.025073, -0.999954, 3.54636, 0.020625, -476.158423, 451.54118)">
      <stop offset="0" style="stop-color: rgb(250, 129, 8);"/>
      <stop offset="1" style="stop-color: rgba(250, 129, 8, 0);"/>
    </linearGradient>
    <linearGradient gradientUnits="userSpaceOnUse" x1="435.059" y1="183.772" x2="435.059" y2="191.771" id="gradient-4" gradientTransform="matrix(-0.030808, -0.999882, 5.038515, 0.000393, -439.998908, 622.532823)">
      <stop offset="0" style="stop-color: rgba(250, 129, 8, 1)"/>
      <stop offset="1" style="stop-color: rgba(250, 129, 8, 0);"/>
    </linearGradient>
  </defs>
  <path d="M 315.457 209.654 C 318.459 240.756 313.198 261.368 284.961 273.748 C 262.695 285.643 237.573 287.989 189.994 287.644 C 141.835 287.295 117.373 285.369 91.653 271.857 C 63.843 257.995 52.964 238.858 49.996 208.114 C 46.621 173.153 64.206 144.812 89.274 144.812 C 99.389 144.812 254.375 146.352 263.955 146.352 C 289.023 146.352 312.081 174.693 315.457 209.654 Z" style="stroke: rgb(0, 0, 0); stroke-width: 3px; fill: url(#gradient-0);" transform="matrix(0.984808, -0.173649, 0.173649, 0.984808, -34.771938, 35.044285)"/>
  <path d="M 189.518 248.643 C 130.329 247.832 78.644 238.598 54.6 226.004 C 53.196 220.515 52.225 214.572 51.601 208.118 C 51.42 206.241 51.299 204.382 51.236 202.546 C 74.9 215.369 127.106 224.813 186.995 225.633 C 244.76 226.425 294.031 218.979 316.827 207.5 C 316.914 208.217 316.992 208.936 317.061 209.658 C 317.825 217.573 318.055 224.809 317.506 231.403 C 293.969 242.373 245.77 249.414 189.518 248.643 Z" style="stroke: rgb(0, 0, 0); fill: rgb(169, 170, 167);" transform="matrix(0.984808, -0.173649, 0.173649, 0.984808, -36.375919, 35.469803)"/>
  <path d="M 258.864 149.961 C 259.856 161.076 217.083 169.771 163.326 169.382 C 109.569 168.992 65.187 159.666 64.194 148.55 C 63.778 143.896 71.036 139.666 83.561 136.35 L 83.105 136.35 C 83.274 136.35 83.441 136.346 83.609 136.337 C 84.755 136.034 85.945 135.739 87.177 135.452 C 87.794 135.159 88.376 134.798 88.911 134.371 C 94.301 130.07 97.891 123.932 99.093 116.953 L 102.619 105.853 C 105 98.358 110.857 92.723 118.479 90.594 C 119.696 90.253 120.947 90.01 122.22 89.865 C 153.661 86.307 185.601 85.407 217.707 87.176 C 226.731 87.176 233.314 96.944 229.557 104.759 C 227.963 108.075 224.761 110.246 220.98 110.577 C 193.826 112.95 166.358 113.432 138.773 112.017 C 135.974 111.873 133.393 113.036 131.792 115.16 C 128.684 119.284 126.662 124.169 125.884 129.426 C 125.849 129.667 125.83 129.907 125.826 130.147 C 136.343 129.407 147.765 129.043 159.732 129.129 C 213.488 129.519 257.871 138.846 258.864 149.961 Z" style="stroke: rgb(2, 3, 0); stroke-width: 3px; fill: url(#gradient-1);" transform="matrix(0.984808, -0.173649, 0.173649, 0.984808, -19.746208, 29.991615)"/>
  <rect x="305.303" y="183.734" width="136.873" height="7.999" style="fill: url(#gradient-2);" transform="matrix(0.97482, -0.222992, 0.207936, 0.978264, -38.028896, 26.007259)"/>
  <rect x="218.73" y="183.756" width="98.061" height="7.999" style="fill: url(#gradient-3);" transform="matrix(0.97482, -0.222992, 0.207936, 0.978264, 70.150711, 46.384258)"/>
  <rect x="355.394" y="183.772" width="159.33" height="7.999" style="fill: url(#gradient-4);" transform="matrix(0.97482, -0.222992, 0.207936, 0.978264, -57.887341, 119.697212)"/>
</svg>