<?xml version="1.0" encoding="UTF-8"?>
<svg width="200px" height="200px" viewBox="0 0 200 200" version="1.1" xmlns="http://www.w3.org/2000/svg" xmlns:xlink="http://www.w3.org/1999/xlink">
    <!-- Generator: Sketch 54.1 (76490) - https://sketchapp.com -->
    <title>liu-post</title>
    <desc>Created with Sketch.</desc>
    <g id="liu-post" stroke="none" stroke-width="1" fill="none" fill-rule="evenodd">
        <g id="liu-post_BGL">
            <g id="Asset-1" transform="translate(0.000000, 58.000000)">
                <path d="M175.361798,23.2359551 C171.006742,18.5168539 164.894382,14.3325843 157.2,10.8089888 C141.986517,3.83820225 121.860674,0 100.530337,0 C79.2,0 59.0741573,3.83820225 43.8606742,10.8089888 C36.1662921,14.3325843 30.0539326,18.5168539 25.6988764,23.2359551 C20.6741573,28.6831461 18.0089888,34.9483146 18.0089888,41.3483146 C18.0089888,47.7483146 20.6741573,54.0359551 25.6988764,59.4831461 C30.0539326,64.2022472 36.1662921,68.3865169 43.8606742,71.9101124 C59.0741573,78.8808989 79.2,82.7191011 100.530337,82.7191011 C121.860674,82.7191011 141.986517,78.8808989 157.2,71.9101124 C164.894382,68.3865169 171.006742,64.2022472 175.361798,59.4831461 C180.395506,54.0359551 183.051685,47.7707865 183.051685,41.3573034 C183.051685,34.9438202 180.395506,28.6831461 175.361798,23.2359551" id="Path" fill="#FFFFFF" fill-rule="nonzero"></path>
                <path d="M172.782022,23.8202247 C168.548315,19.2314607 162.602247,15.1640449 155.119101,11.7393258 C140.323596,4.94382022 120.755056,1.22696629 100.008989,1.22696629 C79.2629213,1.22696629 59.694382,4.94382022 44.894382,11.7393258 C37.4157303,15.1640449 31.4606742,19.2314607 27.2314607,23.8202247 C22.341573,29.1191011 19.7752809,35.2179775 19.7752809,41.447191 C19.7752809,47.6764045 22.3595506,53.7752809 27.2494382,59.0741573 C31.4876404,63.6629213 37.4337079,67.7303371 44.9123596,71.1595506 C59.7123596,77.9370787 79.2808989,81.6719101 100.026966,81.6719101 C120.773034,81.6719101 140.341573,77.9370787 155.137079,71.1595506 C162.620225,67.7303371 168.566292,63.6629213 172.8,59.0741573 C177.694382,53.7752809 180.278652,47.6808989 180.278652,41.447191 C180.278652,35.2134831 177.676404,29.1191011 172.782022,23.8202247" id="Path" fill="#095540" fill-rule="nonzero"></path>
                <path d="M154.377528,14.0629213 C139.811236,7.38876404 120.503371,3.7258427 99.9955056,3.7258427 C79.4876404,3.7258427 60.1932584,7.40224719 45.6134831,14.0629213 C30.2651685,21.0966292 21.7932584,30.8224719 21.7932584,41.447191 C21.7932584,52.0719101 30.2516854,61.8022472 45.6134831,68.8359551 C60.1797753,75.5101124 79.4876404,79.1730337 99.9955056,79.1730337 C120.503371,79.1730337 139.797753,75.5011236 154.377528,68.8359551 C169.725843,61.8022472 178.197753,52.0764045 178.197753,41.447191 C178.197753,30.8179775 169.74382,21.0966292 154.377528,14.0629213" id="Path" fill="#EBA900" fill-rule="nonzero"></path>
                <path d="M153.820225,15.8022472 C139.438202,9.20898876 120.319101,5.57752809 100.008989,5.57752809 C79.6988764,5.57752809 60.588764,9.20898876 46.1977528,15.8022472 C31.4921348,22.5438202 23.3977528,31.6494382 23.3977528,41.447191 C23.3977528,51.2449438 31.4876404,60.3550562 46.1977528,67.0921348 C60.588764,73.7078652 79.6988764,77.3033708 100.008989,77.3033708 C120.319101,77.3033708 139.429213,73.6719101 153.820225,67.0786517 C168.539326,60.3550562 176.629213,51.2359551 176.629213,41.447191 C176.629213,31.658427 168.539326,22.5393258 153.829213,15.8022472" id="Path" fill="#FFFFFF" fill-rule="nonzero"></path>
                <path d="M175.582022,41.447191 C175.582022,60.5707865 141.74382,76.0539326 100.008989,76.0539326 C58.2741573,76.0539326 24.4359551,60.552809 24.4359551,41.447191 C24.4359551,22.341573 58.2696629,6.84044944 100.008989,6.84044944 C141.748315,6.84044944 175.582022,22.341573 175.582022,41.447191" id="Path" fill="#095540" fill-rule="nonzero"></path>
                <path d="M175.05618,17.7303371 L154.157303,17.7303371 C149.002247,17.7303371 145.725843,18.0179775 143.2,18.6831461 C142.063597,18.9736039 140.967595,19.4038527 139.937079,19.9640449 C138.794308,19.2585162 137.538466,18.755267 136.224719,18.4764045 C133.977528,17.9595506 130.858427,17.7303371 126.125843,17.7303371 C120.975281,17.7303371 117.860674,18.0314607 115.379775,18.7685393 C114.333204,19.0709553 113.327878,19.5011623 112.386517,20.0494382 C111.497886,19.5171063 110.542801,19.1045459 109.546067,18.8224719 C107.48764,18.2202247 104.898876,17.9235955 101.622472,17.8966292 L13.3662921,17.8966292 L0,52.5842697 L42.9078652,52.5842697 L43.3573034,51.4786517 C43.8925504,51.6726365 44.438827,51.8347186 44.9932584,51.9640449 C47.3123596,52.5078652 50.3865169,52.7505618 55.0247191,52.7505618 C59.8516854,52.7505618 62.9662921,52.4629213 65.4426966,51.7977528 C68.2382022,51.0426966 70.3865169,49.7033708 71.8067416,47.811236 L69.9460674,52.5842697 L93.105618,52.5842697 L96.0988764,44.8179775 L97.2404494,44.8179775 C98.7865169,44.8179775 100.148315,44.7595506 101.375281,44.6561798 C101.52809,46.4988764 102.570787,50.7370787 108.795506,52.0808989 C110.970787,52.5303371 113.910112,52.7505618 118.620225,52.7505618 C123.775281,52.7505618 126.710112,52.5213483 129.083146,51.941573 C130.35833,51.660824 131.589185,51.207192 132.741573,50.5932584 C133.908122,51.2509726 135.169522,51.7239976 136.480899,51.9955056 C138.822472,52.5123596 142.026966,52.7550562 146.566292,52.7550562 C152.004494,52.7550562 155.555056,52.3685393 158.202247,51.4426966 L157.752809,52.5842697 L180.91236,52.5842697 L188.314607,33.3348315 L193.779775,33.3348315 L199.829213,17.7303371 L175.05618,17.7303371 Z" id="Path" fill="#095540" fill-rule="nonzero"></path>
                <path d="M166.952809,19.6629213 L166.952809,19.6629213 L155.644944,19.6629213 C155.173034,19.6629213 154.683146,19.6629213 154.175281,19.6629213 C148.332584,19.6629213 143.132584,19.9146067 139.865169,22.3191011 C138.712697,21.3206085 137.317604,20.6432133 135.820225,20.3550562 C133.716854,19.8741573 130.737079,19.6629213 126.152809,19.6629213 C120.382022,19.6629213 115.510112,19.9191011 112.368539,22.3910112 C111.389823,21.5831724 110.247418,20.9974022 109.020225,20.6741573 C107.164045,20.1303371 104.678652,19.847191 101.626966,19.8292135 L14.6921348,19.8292135 L2.81797753,50.6382022 L46.9078652,50.6382022 L42.0853933,63.2224719 L155.258427,63.2224719 L160.080899,50.6382022 L160.58427,50.6382022 L160.58427,50.6382022 L179.595506,50.6382022 L187.006742,31.4022472 L192.47191,31.4022472 L197.024719,19.6629213 L166.952809,19.6629213 Z" id="Path" fill="#EBA900" fill-rule="nonzero"></path>
                <polygon id="Path" fill="#095540" fill-rule="nonzero" points="29.4337079 22.7595506 16.705618 22.7595506 7.09213483 47.7033708 25.9011236 47.7033708 28.1213483 41.9955056 22.0269663 41.9955056"></polygon>
                <polygon id="Path" fill="#095540" fill-rule="nonzero" points="36.458427 22.7595506 26.8404494 47.7033708 39.5685393 47.7033708 49.1865169 22.7595506"></polygon>
                <path d="M63.8202247,22.7595506 L56.5078652,41.847191 L56.4224719,42.0539326 C56.0975891,42.141919 55.7609,42.1783179 55.4247191,42.1617978 L62.7820225,22.7595506 L50.0674157,22.7595506 L42.8269663,41.6359551 L42.647191,42.1977528 C42.441122,42.7342999 42.334513,43.3038966 42.3325843,43.8786517 C42.3595506,45.5191011 43.6224719,46.6426966 46.0808989,47.2179775 C47.9955056,47.6674157 50.8314607,47.8741573 55.0022472,47.8741573 C62.7235955,47.8741573 67.1820225,47.2 68.5932584,43.6404494 L68.8314607,43.1011236 L76.6337079,22.7640449 L63.8202247,22.7595506 Z" id="Path" fill="#095540" fill-rule="nonzero"></path>
                <path d="M98.1752809,28.4674157 L96.1797753,33.7348315 L96.1258427,33.8382022 L96.0719101,33.9640449 C96.053066,34.0004125 96.0365533,34.0379414 96.0224719,34.0764045 C95.6823861,34.1962612 95.321716,34.2466939 94.9617978,34.2247191 L97.1640449,28.4674157 L98.1752809,28.4674157 Z M101.6,22.7595506 L86.6561798,22.7595506 L77.0382022,47.7033708 L89.7662921,47.7033708 L92.7640449,39.9370787 L97.258427,39.9370787 C103.847191,39.9370787 106.94382,38.9168539 107.946067,36.4179775 L107.986517,36.3280899 L108.067416,35.9910112 L111.047191,28.3146067 L111.119101,28.0089888 C111.321952,27.5595577 111.42909,27.0728425 111.433708,26.5797753 C111.388764,24.0449438 108.175281,22.7910112 101.6,22.7505618 L101.6,22.7595506 Z" id="Shape" fill="#095540" fill-rule="nonzero"></path>
                <path d="M120.494382,41.9325843 L120.435955,42.0494382 C120.112207,42.1434896 119.77476,42.1814904 119.438202,42.1617978 L119.402247,42.1617978 L124.54382,28.6337079 C124.669663,28.3595506 124.732584,28.3011236 125.586517,28.3011236 L125.703371,28.3011236 L120.494382,41.9325843 Z M135.155056,23.2134831 C133.276404,22.7865169 130.498876,22.5932584 126.14382,22.5932584 C118.080899,22.5932584 113.964045,23.2764045 112.386517,27.1505618 L112.14382,27.6988764 L106.795506,41.6314607 L106.795506,41.6764045 C106.471835,42.4474157 106.283314,43.268394 106.238202,44.1033708 C106.265169,45.7213483 107.474157,46.8 109.833708,47.3078652 C111.631461,47.6988764 114.32809,47.8696629 118.629213,47.8696629 C123.361798,47.8696629 125.977528,47.6808989 127.946067,47.1955056 C130.714607,46.5258427 131.838202,45.6179775 132.750562,43.2988764 L138.319101,28.7640449 L138.494382,28.2337079 C138.700733,27.68772 138.808768,27.1095045 138.813483,26.5258427 C138.782022,24.8764045 137.555056,23.7617978 135.155056,23.2134831 L135.155056,23.2134831 Z" id="Shape" fill="#095540" fill-rule="nonzero"></path>
                <path d="M147.865169,42.0089888 L147.865169,42.0089888 C147.568848,42.1220168 147.250804,42.1665737 146.934831,42.1393258 L146.777528,42.1393258 L148.521348,37.5820225 L148.755056,37.6539326 C148.916854,37.7078652 149.204494,37.7932584 149.447191,37.8786517 L147.865169,42.0089888 Z M153.150562,28.3146067 L152,31.4606742 L151.510112,31.3033708 C151.316854,31.2404494 151.155056,31.1865169 151.029213,31.1370787 L152.058427,28.6426966 L152.116854,28.458427 C152.450548,28.3512206 152.800276,28.3025627 153.150562,28.3146067 L153.150562,28.3146067 Z M162.629213,23.2404494 C160.737079,22.7910112 158.053933,22.6067416 154.179775,22.6067416 C145.878652,22.6067416 141.388764,23.2719101 139.88764,26.9123596 L138.710112,30.058427 C138.440019,30.7164896 138.273257,31.4123438 138.21573,32.1213483 C138.251685,34.0988764 140.125843,34.8764045 142.58427,35.6853933 L143.280899,35.9101124 L136.462921,35.9101124 L134.053933,42.2876404 L133.986517,42.4719101 C133.762885,42.9346113 133.644689,43.4411634 133.640449,43.9550562 C133.694382,47.2314607 138.629213,47.8876404 146.566292,47.8876404 C152.61573,47.8876404 155.914607,47.411236 157.959551,46.2426966 L158,46.2157303 C159.191011,45.4786517 159.608989,44.9213483 160.157303,43.2764045 L160.211236,43.1910112 L160.292135,43.0696629 L161.820225,38.9483146 L161.964045,38.6292135 L161.991011,38.5662921 C162.26497,38.0207597 162.409534,37.4194342 162.413483,36.8089888 C162.377528,34.8089888 160.355056,34.1483146 157.285393,33.1505618 L164.076404,33.1505618 L165.991011,28.1483146 L166.089888,27.8202247 C166.286461,27.3748567 166.394828,26.8956029 166.408989,26.4089888 C166.382022,24.9662921 164.930337,23.752809 162.629213,23.2629213 L162.629213,23.2404494 Z" id="Shape" fill="#095540" fill-rule="nonzero"></path>
                <polygon id="Path" fill="#095540" fill-rule="nonzero" points="168.988764 22.5932584 166.773034 28.3011236 172.314607 28.3011236 164.853933 47.7033708 177.582022 47.7033708 185.042697 28.3011236 190.516854 28.3011236 192.732584 22.5932584"></polygon>
                <polygon id="Path" fill="#FFFFFF" fill-rule="nonzero" points="17.6359551 24.1123596 27.4606742 24.1123596 20.0539326 43.3483146 26.1438202 43.3483146 24.9797753 46.3505618 9.06516854 46.3505618"></polygon>
                <polygon id="Path" fill="#FFFFFF" fill-rule="nonzero" points="37.388764 24.1123596 47.2134831 24.1123596 38.6426966 46.3505618 28.8134831 46.3505618"></polygon>
                <path d="M60.8224719,24.1123596 L53.9325843,42.3146067 C53.7662921,42.6831461 53.6808989,42.7640449 53.6853933,42.9168539 C53.6853933,43.2808989 54.5303371,43.5146067 55.3977528,43.5146067 C56.7011236,43.5146067 57.447191,43.2808989 57.694382,42.5483146 L57.7752809,42.3505618 L64.7640449,24.1123596 L74.6786517,24.1123596 L67.6089888,42.5393258 L67.3573034,43.105618 C66.3550562,45.6719101 63.0157303,46.5078652 55.0157303,46.5078652 C47.1011236,46.5078652 43.7303371,45.7393258 43.6988764,43.8426966 C43.7043728,43.4300541 43.7850948,43.0218752 43.9370787,42.6382022 L44.1033708,42.1078652 L51.011236,24.1033708 L60.8224719,24.1123596 Z" id="Path" fill="#FFFFFF" fill-rule="nonzero"></path>
                <path d="M94.1438202,35.5820225 L94.5932584,35.5820225 C96.4224719,35.5820225 97.0247191,35.3168539 97.3573034,34.4494382 L97.4426966,34.2831461 L99.7752809,28.1123596 L99.8651685,27.9820225 C99.8651685,27.8786517 99.9460674,27.8157303 99.9460674,27.7123596 C99.9460674,27.3123596 99.411236,27.1146067 98.1977528,27.1146067 L96.2651685,27.1146067 L93.0202247,35.5820225 L94.1438202,35.5820225 Z M87.5820225,24.1123596 L101.6,24.1123596 C106.903371,24.1483146 110.049438,25.047191 110.076404,26.6157303 C110.065342,26.9514498 109.982592,27.2809188 109.833708,27.5820225 L109.752809,27.9146067 L106.755056,35.5820225 L106.674157,35.9146067 C105.923596,37.7797753 103.078652,38.5842697 97.2359551,38.5842697 L91.8426966,38.5842697 L88.8494382,46.3505618 L79.011236,46.3505618 L87.5820225,24.1123596 Z" id="Shape" fill="#FFFFFF" fill-rule="nonzero"></path>
                <path d="M127.222472,28.1123596 C127.393258,27.7797753 127.393258,27.7123596 127.388764,27.5820225 C127.388764,27.1820225 126.629213,26.9483146 125.591011,26.9483146 C124.28764,26.9483146 123.716854,27.1820225 123.298876,28.1123596 L117.806742,42.5483146 L117.721348,42.6831461 C117.721348,42.7820225 117.635955,42.8494382 117.640449,42.9483146 C117.640449,43.3168539 118.480899,43.5146067 119.438202,43.5146067 C120.65618,43.5146067 121.397753,43.2808989 121.649438,42.647191 L121.734831,42.4808989 L127.222472,28.1123596 Z M113.38427,28.247191 L113.635955,27.6808989 C114.8,24.7820225 117.707865,23.9460674 126.14382,23.9460674 C134.319101,23.9460674 137.424719,24.647191 137.460674,26.5483146 C137.450874,26.9696688 137.368782,27.3862102 137.217978,27.7797753 L137.051685,28.2786517 L131.658427,42.3820225 L131.492135,42.8314607 C130.741573,44.7325843 129.968539,45.3348315 127.631461,45.9011236 C125.725843,46.3505618 123.069663,46.5348315 118.642697,46.5348315 C110.642697,46.5348315 107.626966,45.9325843 107.591011,44.0988764 C107.654529,43.4232706 107.819686,42.7611267 108.080899,42.1348315 L113.38427,28.247191 Z" id="Shape" fill="#FFFFFF" fill-rule="nonzero"></path>
                <path d="M147.222472,37.2494382 L145.31236,42.247191 L145.31236,42.4134831 C145.245267,42.5354593 145.217041,42.6750215 145.231461,42.8134831 C145.231461,43.2629213 145.991011,43.5146067 146.948315,43.5146067 C148.166292,43.5146067 148.907865,43.2494382 149.244944,42.4134831 L149.244944,42.247191 L150.660674,38.5483146 L150.826966,38.1797753 C150.911268,37.9541306 150.965663,37.7184195 150.988764,37.4786517 C150.988764,36.9797753 150.579775,36.8134831 149.191011,36.3820225 L143.002247,34.3820225 C140.377528,33.5146067 139.586517,32.9797753 139.568539,32.0808989 C139.632628,31.541834 139.770236,31.0140848 139.977528,30.5123596 L140.975281,27.8651685 L141.141573,27.4157303 C142.224719,24.7820225 145.478652,23.9460674 154.175281,23.9460674 C158.004494,23.9460674 160.579775,24.1483146 162.32809,24.5483146 C163.986517,24.9123596 165.024719,25.6808989 165.05618,26.4134831 C165.033121,26.7378355 164.949267,27.0549578 164.808989,27.3483146 L164.72809,27.6494382 L163.146067,31.7797753 L153.321348,31.7797753 L154.647191,28.1483146 C154.767643,27.9534944 154.852839,27.7389816 154.898876,27.5146067 C154.898876,27.1460674 154.139326,26.9483146 153.186517,26.9483146 C151.968539,26.9483146 151.137079,27.2494382 150.889888,27.8157303 L150.804494,28.1123596 L149.635955,30.9483146 C149.469663,31.447191 149.469663,31.447191 149.474157,31.5820225 C149.474157,31.9460674 150.148315,32.2831461 151.110112,32.5797753 L156.853933,34.4134831 C160.350562,35.5460674 161.051685,35.9820225 161.069663,36.8134831 C161.059423,37.2455946 160.946992,37.6691379 160.741573,38.0494382 L160.575281,38.4134831 L159.078652,42.458427 C159.010592,42.5512899 158.954706,42.6524878 158.91236,42.7595506 C158.413483,44.2561798 158.157303,44.5258427 157.298876,45.0561798 C155.501124,46.0898876 152.229213,46.5258427 146.575281,46.5258427 C138.665169,46.5258427 135.033708,45.7573034 135.002247,43.9235955 C135.014435,43.5980778 135.097246,43.2791012 135.244944,42.988764 L135.325843,42.7595506 L137.406742,37.258427 L147.222472,37.2494382 Z" id="Path" fill="#FFFFFF" fill-rule="nonzero"></path>
                <polygon id="Path" fill="#FFFFFF" fill-rule="nonzero" points="174.28764 26.9483146 168.750562 26.9483146 169.914607 23.9460674 190.755056 23.9460674 189.591011 26.9483146 184.11236 26.9483146 176.651685 46.3505618 166.822472 46.3505618"></polygon>
                <path d="M58.5168539,52.6606742 L58.4853933,52.705618 L57.4561798,55.4337079 L57.4292135,55.4921348 C57.3168539,55.788764 57.1146067,55.8831461 56.5303371,55.8831461 L55.6629213,55.8831461 L57.011236,52.3640449 L57.9775281,52.3640449 C58.3820225,52.3640449 58.552809,52.4314607 58.552809,52.5707865 C58.552809,52.6022472 58.5258427,52.6292135 58.5258427,52.6606742 M59.352809,51.3123596 L53.9325843,51.3123596 L50.7865169,59.5730337 L54.2786517,59.5730337 L55.3123596,56.8764045 L57.6449438,56.8764045 C59.5685393,56.8764045 60.5123596,56.6022472 60.7910112,55.9775281 L60.8179775,55.8606742 L62.0764045,52.6157303 L62.1033708,52.5033708 C62.1548975,52.3981469 62.1839777,52.2833569 62.188764,52.1662921 C62.188764,51.6314607 61.1595506,51.3213483 59.4067416,51.3078652" id="Shape" fill="#095540" fill-rule="nonzero"></path>
                <polygon id="Path" fill="#095540" fill-rule="nonzero" points="68.4898876 51.2988764 72.0044944 51.2988764 68.8044944 59.5865169 65.2898876 59.5865169"></polygon>
                <path d="M82.1303371,52.7910112 C82.1706491,52.7312048 82.1925266,52.6608843 82.1932584,52.588764 C82.1932584,52.4404494 81.8292135,52.3550562 81.4561798,52.3550562 C81.0067416,52.3550562 80.6876404,52.4404494 80.5303371,52.8044944 L78.4808989,58.1977528 L78.4494382,58.247191 C78.4494382,58.2876404 78.4179775,58.3101124 78.4179775,58.3460674 C78.4179775,58.4853933 78.8134831,58.5573034 79.1550562,58.5573034 C79.6044944,58.5573034 79.9550562,58.4719101 80.0539326,58.2382022 L80.0853933,58.1752809 L82.1303371,52.7910112 Z M76.988764,52.8404494 L77.0831461,52.6292135 C77.5325843,51.5460674 78.6606742,51.2359551 81.6719101,51.2359551 C84.5932584,51.2359551 85.7977528,51.4966292 85.7977528,52.2067416 C85.7906462,52.3606525 85.7587768,52.5124117 85.7033708,52.6561798 L85.6404494,52.8404494 L83.6224719,58.0988764 L83.5595506,58.2606742 C83.2808989,58.9707865 83.0022472,59.1955056 82.1617978,59.4067416 C81.0680801,59.6059195 79.9557849,59.6842926 78.8449438,59.6404494 C75.9865169,59.6404494 74.8,59.4202247 74.8,58.741573 C74.8256525,58.4892626 74.8892926,58.2422784 74.988764,58.0089888 L76.988764,52.8404494 Z" id="Shape" fill="#095540" fill-rule="nonzero"></path>
                <path d="M92.0674157,51.2988764 L95.5775281,51.2988764 L96.0269663,54.5438202 L96.0269663,54.6561798 L96.0898876,54.9258427 C96.0898876,55.0516854 96.1213483,55.1640449 96.1213483,55.2629213 L96.1213483,55.3483146 L97.6764045,51.3033708 L100.782022,51.3033708 L97.5820225,59.5910112 L94.0719101,59.5910112 L93.7303371,55.9955056 C93.7300676,55.9516454 93.7192788,55.9084899 93.6988764,55.8696629 C93.6988764,55.7213483 93.6674157,55.4831461 93.6674157,55.3573034 L93.6674157,55.2494382 L91.9865169,59.5955056 L88.8808989,59.5955056 L92.0674157,51.2988764 Z" id="Path" fill="#095540" fill-rule="nonzero"></path>
                <polygon id="Path" fill="#095540" fill-rule="nonzero" points="106.516854 51.2988764 112.301124 51.2988764 111.865169 52.4179775 109.595506 52.4179775 108.786517 54.494382 111.08764 54.494382 110.651685 55.6089888 108.382022 55.6089888 107.262921 58.4719101 109.564045 58.4719101 109.12809 59.5865169 103.316854 59.5865169"></polygon>
                <polygon id="Path" fill="#095540" fill-rule="nonzero" points="118.094382 51.2988764 123.878652 51.2988764 123.442697 52.4179775 121.173034 52.4179775 120.364045 54.494382 122.665169 54.494382 122.229213 55.6089888 119.959551 55.6089888 118.840449 58.4719101 121.141573 58.4719101 120.705618 59.5865169 114.894382 59.5865169"></polygon>
                <path d="M132.449438,54.952809 C133.137079,54.952809 133.41573,54.8539326 133.510112,54.5797753 L133.573034,54.4674157 L134.193258,52.8 L134.224719,52.7146067 C134.248402,52.6968183 134.260471,52.6675094 134.25618,52.6382022 C134.25618,52.4898876 134.067416,52.4179775 133.694382,52.4179775 L132.750562,52.4179775 L131.78427,54.952809 L132.449438,54.952809 Z M129.67191,51.2988764 L134.970787,51.2988764 C136.894382,51.2988764 137.923596,51.6224719 137.923596,52.1977528 C137.917203,52.2688682 137.895755,52.3378099 137.860674,52.4 L137.829213,52.5348315 L137.051685,54.5258427 L137.020225,54.5977528 C136.773034,55.2449438 136.521348,55.3707865 135.186517,55.4966292 C136.085393,55.6719101 136.431461,55.8337079 136.431461,56.0808989 C136.418275,56.1818399 136.38626,56.2794092 136.337079,56.3685393 L136.337079,56.4449438 L135.123596,59.5910112 L131.582022,59.5910112 L132.764045,56.5123596 L132.795506,56.4359551 C132.824374,56.3951361 132.845686,56.3494688 132.858427,56.3011236 C132.858427,56.1258427 132.638202,56.0764045 132.017978,56.0764045 L131.352809,56.0764045 L129.982022,59.5910112 L126.47191,59.5910112 L129.67191,51.2988764 Z" id="Shape" fill="#095540" fill-rule="nonzero"></path>
                <path d="M145.698876,56.1797753 L144.98427,58.0449438 L144.98427,58.1078652 C144.959058,58.1529966 144.948091,58.2046997 144.952809,58.2561798 C144.952809,58.4314607 145.316854,58.5168539 145.658427,58.5168539 C146.107865,58.5168539 146.458427,58.4179775 146.579775,58.1078652 L146.579775,58.0449438 L147.110112,56.6651685 L147.173034,56.5303371 C147.20438,56.4462817 147.225505,56.3587622 147.235955,56.2696629 C147.235955,56.0808989 146.993258,56.0224719 146.498876,55.8606742 L144.206742,55.1146067 C143.276404,54.7910112 142.993258,54.588764 142.993258,54.2561798 C143.019113,54.0552223 143.072027,53.8586846 143.150562,53.6719101 L143.523596,52.6876404 L143.586517,52.5168539 C143.991011,51.5325843 145.253933,51.2224719 148.364045,51.2224719 C149.3699,51.1921382 150.376161,51.2674571 151.366292,51.447191 C151.959551,51.5820225 152.332584,51.8696629 152.332584,52.1438202 C152.323317,52.2641111 152.291289,52.3815477 152.238202,52.4898876 L152.206742,52.6022472 L151.617978,54.1438202 L148.103371,54.1438202 L148.602247,52.7955056 C148.646973,52.7236407 148.678907,52.644568 148.696629,52.5617978 C148.696629,52.4224719 148.332584,52.3505618 147.991011,52.3505618 C147.541573,52.3505618 147.159551,52.4629213 147.065169,52.6741573 L147.033708,52.7865169 L146.58427,53.8426966 C146.525843,54.0269663 146.525843,54.0269663 146.525843,54.0764045 C146.525843,54.2157303 146.858427,54.3370787 147.2,54.4494382 L149.334831,55.1325843 C150.579775,55.5550562 150.826966,55.7168539 150.826966,56.0314607 C150.819517,56.1888576 150.776492,56.3425194 150.701124,56.4808989 L150.638202,56.6157303 L150.11236,58.1348315 C150.086823,58.1695404 150.065688,58.2072814 150.049438,58.247191 C149.860674,58.8044944 149.770787,58.9033708 149.460674,59.105618 C148.804494,59.4876404 147.541573,59.6494382 145.523596,59.6494382 C142.692135,59.6494382 141.303371,59.3662921 141.303371,58.6831461 C141.309341,58.5608779 141.341529,58.4413225 141.397753,58.3325843 L141.429213,58.247191 L142.206742,56.1932584 L145.698876,56.1797753 Z" id="Path" fill="#095540" fill-rule="nonzero"></path>
            </g>
        </g>
    </g>
</svg>