<svg version="1.1" id="Layer_1" xmlns="http://www.w3.org/2000/svg" x="0" y="0" viewBox="0 0 282.8 54.1" style="enable-background:new 0 0 282.8 54.1" xml:space="preserve">
    <style>
        .st0{fill:#009ade}
    </style>
    <path class="st0" d="M158.9 1.2h-24.4l-2.9 10.2h3.8l-12 19.1-1.7-29.3H96.9l-2.8 10.1h3.8L81.7 35.9l-13.3-.1c-1.4 0-6.8-1.3-6.8-8S68 11.5 74.4 11.5l2.7.1c-.5 1.6-1.4 5-1.4 5h11.9l4.3-15.5H73.5C62.2 1.2 53 9.3 50.1 17.6l4.7-16.5H38.5l-2.9 10.2h4.2l-4.2 14.9L25 1.2H9.8L7 11.3h4.2L1.7 45.7h12.2s4.7-17.1 5.9-21.4c1.7 4.1 8.9 21.4 8.9 21.4h13.5l6.2-21.8c-.6 3.3-.6 6.7 0 10 1.2 7.2 8.2 11.8 15.7 11.8h24.6l4.2-6.4h17.3l.4 6.4H126l4-6.4h17.7l.7 6.4H162l-3.1-44.5zm-59 27.5 9.4-14.3.5 14.3h-9.9zm37.8-.2 9.4-14.3.5 14.3h-9.9zM165.9 45.7c-1.8 0-3.3 1.5-3.3 3.3s1.5 3.3 3.3 3.3c1.8 0 3.3-1.5 3.3-3.3-.1-1.9-1.5-3.3-3.3-3.3zm0 5.8c-1.4 0-2.6-1.1-2.6-2.6 0-1.4 1.1-2.6 2.6-2.6 1.4 0 2.6 1.1 2.6 2.6s-1.2 2.6-2.6 2.6z"/>
    <path class="st0" d="M167.5 48.3c0-.7-.7-1.2-1.3-1.2h-1.6v3.8h.7v-1.4h.5l.9 1.4h.9l-1-1.5c.3-.1.9-.4.9-1.1zm-.7 0c0 .3-.3.5-.6.5h-.8v-1.1h.8c.3 0 .6.2.6.6zM171.7 36.5H182l-1.6 9.3h-10.3l1.6-9.3zM200.2 22.6c8.7 0 11.1 4.3 11.1 6.9 0 1.3-.4 2.5-.7 3.2H201c.1-.6.2-1.1.2-1.8 0-.8-.4-1.7-1.5-1.7-2 0-3.6 3.2-3.6 7.5 0 1.8.7 2.9 1.9 2.9 1.3 0 2.4-1.3 2.4-3.5h9.6c0 5.4-1.8 10.1-12.3 10.1-7.4 0-11.6-3.6-11.6-9.3 0-7.6 4.1-14.3 14.1-14.3zM226.5 22.6c8.5 0 11.9 4 11.9 9.4 0 8.1-4.7 14.2-13.7 14.2-8.6 0-11.9-3.9-11.9-9.3.1-8.1 4.6-14.3 13.7-14.3zm1.9 9.4c0-1.9-.8-2.8-2-2.8-2.2 0-3.6 2.8-3.6 7.5 0 1.9.9 2.8 2 2.8 2.2.1 3.6-2.6 3.6-7.5zM252.9 26.9c1.2-2.6 3.3-4.3 7.1-4.3s5.7 1.5 6.7 4.3h.3c1.2-2.3 2.9-4.3 6.6-4.3 4.2 0 7 1.9 7 6.8 0 .9-.1 1.9-.3 2.9l-1 5.2c-.1.8-.3 2 1 2 .5 0 1-.1 1.4-.3l-.8 6.1c-1.4.4-4.4.8-6.1.8-4.1 0-5.7-1.9-5.7-4.9 0-.6.1-1.2.2-1.9l1.2-7.1c.1-.6.1-1.2.1-1.6 0-1-.4-1.5-1.3-1.5-1.2 0-2.3 1-3 5l-2 11.5h-9.8l2.4-13.4c.1-.6.2-1.2.2-1.6 0-1-.4-1.5-1.3-1.5-1.2 0-2.3 1-3 5l-2 11.5h-9.9l2.6-14.5c.1-.9.2-1.9-1-1.9-.5 0-1 .1-1.3.2l.8-6.2c1.4-.4 4.2-.7 5.9-.7 3.7 0 4.9 2.2 4.9 3.6v.7h.1z"/>
</svg>

