<svg width="740" height="103" viewBox="0 0 740 103" fill="none" xmlns="http://www.w3.org/2000/svg">
<g clip-path="url(#clip0_121_179967)">
<path fill-rule="evenodd" clip-rule="evenodd" d="M86.21 0.569946H56.05C52.96 0.569946 50.92 2.19994 50.63 4.62994C50.53 5.51994 50.42 6.30994 50.42 6.30994H90.6C90.6 6.30994 90.68 5.70996 90.73 5.23996C91.04 2.79996 90 0.569946 86.21 0.569946Z" fill="white"/>
<path fill-rule="evenodd" clip-rule="evenodd" d="M90.33 8.50989L90.12 10.1999C89.87 11.9499 88.57 13.2599 86.12 13.2599H77.56L76.56 21.0399H69.75L71.3 8.50989H90.33Z" fill="white"/>
<path fill-rule="evenodd" clip-rule="evenodd" d="M31.54 0.569946H49.77L49.05 6.31995H30.83L31.54 0.569946Z" fill="white"/>
<path fill-rule="evenodd" clip-rule="evenodd" d="M30.55 8.51001H48.78L48.19 13.26H36.78L36.49 15.61H47.89L47.22 21.04H29L30.55 8.51001Z" fill="white"/>
<path fill-rule="evenodd" clip-rule="evenodd" d="M92.7 0.569946H107.55C109.89 0.569946 112.34 1.66996 111.86 5.42996C111.77 6.10996 111.74 6.31995 111.74 6.31995H91.98L92.7 0.569946Z" fill="white"/>
<path fill-rule="evenodd" clip-rule="evenodd" d="M91.71 8.51001H98.52L96.97 21.04H90.16L91.71 8.51001Z" fill="white"/>
<path fill-rule="evenodd" clip-rule="evenodd" d="M104.66 8.51001H111.47L109.92 21.04H103.11L104.66 8.51001Z" fill="white"/>
<path fill-rule="evenodd" clip-rule="evenodd" d="M65.13 8.5199H50.13C49.62 11.7899 51.26 13.2799 53.58 13.2799H62.8L62.52 15.6199H49.28L48.6 21.0499H63.6C64.08 21.0499 67.45 20.9199 68.6 18.1599C68.9878 16.5888 69.2586 14.991 69.41 13.3799C69.93 9.44988 67.22 8.5199 65.09 8.5199" fill="white"/>
<path d="M231.23 0.390015H239.9L244.9 14.97L253.72 0.390015H262L259.4 21.09H253.33L255.13 6.73001L246.5 21.1H241.13L236.13 6.45001L234.29 21.1H228.58L231.23 0.390015Z" fill="#FF3E3E"/>
<path d="M265.6 0.390015H286.3L285.67 5.39001H271.07L270.72 8.21002H282.72L282.12 12.94H270.12L269.71 16.16H284.82L284.2 21.05H263L265.6 0.390015Z" fill="#FF3E3E"/>
<path d="M289.43 0.390015H296.2L306.27 12.95L307.84 0.390015H313.68L311.09 21.09H305.09L294.33 7.81L292.67 21.09H286.82L289.43 0.390015Z" fill="#FF3E3E"/>
<path d="M317.9 5.79001H315.9L316.57 0.390015H322.5L321.89 5.32001L318.64 9.99002H315.85L317.9 5.79001Z" fill="#FF3E3E"/>
<path d="M333.13 21.48C331.304 21.5175 329.479 21.3498 327.69 20.98C326.449 20.725 325.257 20.2726 324.16 19.64C323.35 19.1641 322.664 18.5027 322.16 17.71C321.727 17.002 321.423 16.2235 321.26 15.4099L326.69 14.3C326.77 14.712 326.964 15.0933 327.25 15.4C327.603 15.7693 328.033 16.0561 328.51 16.24C329.172 16.5007 329.864 16.6787 330.57 16.77C331.564 16.9003 332.567 16.9605 333.57 16.95C334.67 16.95 335.57 16.9499 336.37 16.8499C336.995 16.8128 337.615 16.7123 338.22 16.55C338.606 16.4534 338.967 16.2761 339.28 16.0299C339.502 15.847 339.645 15.5856 339.68 15.3C339.712 15.1516 339.709 14.998 339.673 14.8507C339.637 14.7035 339.567 14.5664 339.47 14.45C339.192 14.1838 338.846 14.0003 338.47 13.92C337.867 13.7552 337.252 13.6414 336.63 13.58L333.83 13.2899C333 13.2099 332.15 13.12 331.29 13.01C330.443 12.9031 329.602 12.7529 328.77 12.5599C327.994 12.391 327.234 12.1534 326.5 11.8499C325.836 11.5858 325.223 11.2066 324.69 10.73C324.192 10.272 323.808 9.70337 323.57 9.06995C323.32 8.32001 323.252 7.52152 323.37 6.73996C323.498 5.67813 323.889 4.66499 324.507 3.79206C325.125 2.91912 325.951 2.21386 326.91 1.73996C329.548 0.47593 332.458 -0.115001 335.38 0.0199609C337.078 -0.00877691 338.775 0.145437 340.44 0.479952C341.575 0.712966 342.67 1.11049 343.69 1.65995C344.407 2.04289 345.037 2.57073 345.54 3.20996C345.907 3.70994 346.209 4.25424 346.44 4.82996L340.61 6.73996C340.438 6.37213 340.188 6.04633 339.877 5.78546C339.566 5.5246 339.202 5.33498 338.81 5.22995C337.494 4.85671 336.127 4.69469 334.76 4.74994C333.418 4.70328 332.075 4.81742 330.76 5.08994C329.9 5.30994 329.44 5.69995 329.37 6.25995C329.34 6.40903 329.344 6.56309 329.382 6.71039C329.42 6.85769 329.491 6.99435 329.59 7.10996C329.869 7.37202 330.215 7.55195 330.59 7.62995C331.174 7.78472 331.769 7.89175 332.37 7.94995C333.09 8.03995 333.96 8.11994 334.98 8.21994C336.23 8.32994 337.53 8.47995 338.86 8.66995C340.103 8.82552 341.321 9.14497 342.48 9.61997C343.482 10.014 344.359 10.6702 345.02 11.52C345.346 11.9921 345.574 12.5247 345.69 13.0862C345.807 13.6478 345.81 14.2271 345.7 14.7899C345.589 15.6436 345.325 16.4701 344.92 17.23C344.442 18.1012 343.754 18.84 342.92 19.3799C341.756 20.1026 340.478 20.6233 339.14 20.92C337.166 21.3465 335.149 21.5345 333.13 21.48Z" fill="#FF3E3E"/>
<path d="M457.01 55.23H421.72C422.05 57.7199 422.101 60.2389 421.87 62.74H457.01V55.23Z" fill="white"/>
<path d="M119.72 29.96C116.966 30.0309 114.326 31.0737 112.267 32.9038C110.208 34.734 108.863 37.2335 108.47 39.96L102.52 87.4499H112.52L118.47 39.96C118.567 39.2808 118.901 38.6579 119.414 38.202C119.926 37.7461 120.584 37.4867 121.27 37.4699H136.27L137.21 29.96H119.72Z" fill="white"/>
<path d="M55.79 29.96H45.79C43.0362 30.031 40.3963 31.0737 38.3373 32.9039C36.2784 34.734 34.9333 37.2335 34.54 39.96L29.84 77.45C29.64 78.7024 29.7181 79.9835 30.0689 81.2023C30.4196 82.4211 31.0344 83.5478 31.8696 84.5022C32.7047 85.4567 33.7399 86.2156 34.9013 86.7251C36.0628 87.2345 37.3222 87.482 38.59 87.45H48.59C51.3438 87.3791 53.9838 86.3363 56.0427 84.5061C58.1016 82.676 59.4467 80.1765 59.84 77.45L64.54 39.96C64.74 38.7076 64.6619 37.4265 64.3112 36.2077C63.9604 34.9889 63.3456 33.8623 62.5104 32.9078C61.6753 31.9533 60.6402 31.1944 59.4787 30.6849C58.3172 30.1755 57.0579 29.928 55.79 29.96ZM49.84 77.45C49.7432 78.1292 49.4088 78.7521 48.8961 79.208C48.3835 79.6638 47.7258 79.9232 47.04 79.94H42.04C41.7246 79.9466 41.4117 79.8841 41.1231 79.7569C40.8344 79.6296 40.5772 79.4406 40.3694 79.2033C40.1616 78.966 40.0084 78.6861 39.9204 78.3832C39.8323 78.0802 39.8117 77.7617 39.86 77.45L44.56 39.96C44.6587 39.2817 44.9937 38.6599 45.5059 38.2044C46.0182 37.7489 46.6748 37.4888 47.36 37.47H52.36C52.6759 37.4616 52.9897 37.5229 53.2792 37.6496C53.5687 37.7763 53.8266 37.9653 54.0348 38.203C54.2429 38.4408 54.3961 38.7215 54.4835 39.0252C54.5708 39.3288 54.5901 39.648 54.54 39.96L49.84 77.45Z" fill="white"/>
<path d="M694.06 30.24H684.06C681.305 30.3106 678.664 31.353 676.603 33.183C674.543 35.013 673.196 37.5127 672.8 40.24L668.13 77.73C667.93 78.9824 668.008 80.2635 668.359 81.4823C668.71 82.7011 669.324 83.8278 670.16 84.7822C670.995 85.7367 672.03 86.4956 673.191 87.0051C674.353 87.5145 675.612 87.762 676.88 87.73H686.88L686.26 92.73C686.159 93.4075 685.824 94.0282 685.312 94.4834C684.8 94.9385 684.145 95.1993 683.46 95.22H665.96L665.02 102.73H685.02C687.774 102.659 690.414 101.616 692.473 99.7861C694.532 97.956 695.877 95.4565 696.27 92.73L702.84 40.24C703.042 38.9848 702.965 37.7003 702.613 36.4785C702.261 35.2566 701.644 34.1276 700.805 33.1722C699.966 32.2167 698.927 31.4584 697.761 30.9516C696.595 30.4447 695.331 30.2017 694.06 30.24ZM687.79 80.24H680.29C679.974 80.246 679.66 80.1821 679.372 80.0529C679.083 79.9237 678.826 79.7325 678.62 79.4928C678.414 79.2531 678.263 78.9708 678.178 78.6661C678.093 78.3614 678.077 78.0418 678.13 77.73L682.82 40.24C682.92 39.5625 683.256 38.9418 683.768 38.4866C684.28 38.0315 684.935 37.7707 685.62 37.75H690.62C690.935 37.7431 691.248 37.8055 691.536 37.9329C691.824 38.0602 692.081 38.2494 692.288 38.4869C692.495 38.7245 692.647 39.0047 692.734 39.3076C692.821 39.6105 692.84 39.9289 692.79 40.24L687.79 80.24Z" fill="white"/>
<path d="M198.26 29.96H178.26L177.32 37.47H194.82C195.136 37.4616 195.45 37.5229 195.739 37.6496C196.029 37.7763 196.287 37.9653 196.495 38.203C196.703 38.4408 196.856 38.7215 196.944 39.0252C197.031 39.3288 197.05 39.648 197 39.96L196.29 45.67H186.29C183.535 45.7386 180.892 46.7804 178.831 48.6107C176.77 50.4411 175.424 52.9419 175.03 55.67L172.31 77.45C172.108 78.7018 172.185 79.9827 172.534 81.2016C172.884 82.4204 173.498 83.5473 174.332 84.502C175.167 85.4568 176.201 86.2159 177.362 86.7254C178.523 87.2349 179.783 87.4823 181.05 87.45H191.05C193.804 87.3791 196.444 86.3363 198.503 84.5061C200.562 82.676 201.907 80.1765 202.3 77.45L207 39.96C207.2 38.7085 207.122 37.4282 206.772 36.2102C206.422 34.9921 205.808 33.866 204.974 32.9117C204.14 31.9574 203.106 31.1983 201.946 30.6882C200.785 30.1781 199.527 29.9295 198.26 29.96ZM192.26 77.45C192.163 78.1292 191.829 78.7521 191.316 79.208C190.804 79.6638 190.146 79.9232 189.46 79.94H184.46C184.145 79.9469 183.832 79.8845 183.544 79.7571C183.256 79.6298 182.999 79.4407 182.792 79.2031C182.585 78.9655 182.433 78.6854 182.346 78.3824C182.259 78.0795 182.24 77.7612 182.29 77.45L185.01 55.67C185.109 54.9917 185.444 54.3699 185.956 53.9144C186.468 53.4589 187.125 53.1988 187.81 53.18H195.31L192.26 77.45Z" fill="white"/>
<path d="M86.8 77.45C86.7032 78.1291 86.3688 78.752 85.8561 79.2079C85.3435 79.6638 84.6858 79.9231 84 79.9399H79C78.6846 79.9466 78.3717 79.8841 78.0831 79.7568C77.7944 79.6295 77.5372 79.4406 77.3294 79.2032C77.1216 78.9659 76.9684 78.686 76.8804 78.3831C76.7924 78.0802 76.7717 77.7617 76.82 77.45L82.82 29.96H72.82L66.82 77.45C66.62 78.7024 66.6981 79.9834 67.0489 81.2022C67.3996 82.4211 68.0144 83.5477 68.8496 84.5022C69.6848 85.4566 70.7198 86.2156 71.8813 86.725C73.0427 87.2345 74.3021 87.4819 75.57 87.4499H85.57C88.3238 87.379 90.9638 86.3362 93.0227 84.5061C95.0816 82.6759 96.4267 80.1765 96.82 77.45L102.82 29.96H92.82L86.8 77.45Z" fill="white"/>
<path d="M161.77 29.96H151.77C149.016 30.031 146.376 31.0737 144.317 32.9039C142.258 34.734 140.913 37.2335 140.52 39.96L134.52 87.45H144.52L150.52 39.96C150.617 39.2809 150.951 38.658 151.464 38.2021C151.977 37.7462 152.634 37.4868 153.32 37.47H158.32C158.635 37.4634 158.948 37.5259 159.237 37.6532C159.526 37.7805 159.783 37.9694 159.991 38.2067C160.198 38.444 160.352 38.724 160.44 39.0269C160.528 39.3298 160.548 39.6483 160.5 39.96L154.5 87.45H164.5L170.5 39.96C170.7 38.7093 170.622 37.43 170.272 36.2127C169.923 34.9954 169.31 33.8698 168.477 32.9157C167.644 31.9615 166.611 31.2022 165.452 30.6914C164.293 30.1807 163.036 29.931 161.77 29.96Z" fill="white"/>
<path d="M657.56 30.24H647.56C644.806 30.3109 642.166 31.3537 640.107 33.1838C638.048 35.014 636.703 37.5135 636.31 40.24L630.31 87.73H640.31L646.31 40.24C646.405 39.5547 646.741 38.9256 647.258 38.4656C647.774 38.0056 648.438 37.7448 649.13 37.73H654.13C654.446 37.7216 654.76 37.7829 655.049 37.9096C655.339 38.0363 655.597 38.2252 655.805 38.463C656.013 38.7007 656.166 38.9814 656.253 39.2851C656.341 39.5888 656.36 39.908 656.31 40.22L650.31 87.7099H660.31L666.31 40.22C666.507 38.969 666.426 37.6902 666.074 36.4739C665.722 35.2575 665.106 34.1335 664.272 33.1814C663.437 32.2292 662.403 31.4722 661.243 30.9639C660.083 30.4556 658.826 30.2085 657.56 30.24Z" fill="white"/>
<path d="M254.74 29.9601H244.74C242.931 29.9746 241.155 30.4385 239.57 31.31C238.118 30.416 236.445 29.9482 234.74 29.9601H224.74C221.985 30.0306 219.344 31.0731 217.283 32.9031C215.223 34.733 213.875 37.2327 213.48 39.9601L207.54 87.45H217.54L223.48 39.9601C223.581 39.2825 223.916 38.6619 224.428 38.2067C224.94 37.7515 225.595 37.4908 226.28 37.47H231.28C231.595 37.4631 231.908 37.5256 232.196 37.6529C232.484 37.7802 232.741 37.9694 232.948 38.207C233.155 38.4445 233.307 38.7247 233.394 39.0277C233.481 39.3306 233.5 39.6489 233.45 39.9601L227.5 87.45H237.5L243.45 39.9601C243.551 39.2825 243.886 38.6619 244.398 38.2067C244.91 37.7515 245.565 37.4908 246.25 37.47H251.25C251.566 37.4616 251.88 37.523 252.169 37.6497C252.459 37.7764 252.717 37.9653 252.925 38.203C253.133 38.4408 253.286 38.7215 253.373 39.0252C253.461 39.3289 253.48 39.6481 253.43 39.9601L247.48 87.45H257.48L263.43 39.9601C263.629 38.7128 263.552 37.437 263.205 36.2226C262.857 35.0082 262.248 33.8847 261.42 32.9313C260.591 31.9779 259.564 31.2178 258.41 30.7044C257.255 30.1911 256.003 29.937 254.74 29.9601Z" fill="white"/>
<path d="M551.57 30.24H531.57L530.63 37.75H548.13C548.445 37.7431 548.758 37.8055 549.046 37.9329C549.334 38.0602 549.591 38.2494 549.798 38.4869C550.005 38.7245 550.157 39.0047 550.244 39.3076C550.331 39.6105 550.35 39.9289 550.3 40.24L549.59 45.95H539.59C536.836 46.0189 534.195 47.0611 532.135 48.8916C530.076 50.7221 528.731 53.2227 528.34 55.95L525.63 77.73C525.43 78.9824 525.508 80.2635 525.859 81.4823C526.21 82.7011 526.824 83.8278 527.66 84.7822C528.495 85.7367 529.53 86.4956 530.691 87.0051C531.853 87.5145 533.112 87.762 534.38 87.73H544.38C547.134 87.6591 549.774 86.6163 551.833 84.7861C553.892 82.956 555.237 80.4565 555.63 77.73L560.32 40.24C560.522 38.9873 560.445 37.7055 560.095 36.4859C559.745 35.2663 559.13 34.1389 558.295 33.184C557.459 32.2291 556.423 31.4702 555.261 30.9613C554.099 30.4525 552.838 30.2062 551.57 30.24ZM545.57 77.73C545.471 78.4083 545.136 79.0301 544.624 79.4856C544.112 79.9411 543.455 80.2012 542.77 80.22H537.77C537.454 80.2284 537.14 80.1671 536.851 80.0404C536.561 79.9137 536.303 79.7248 536.095 79.487C535.887 79.2493 535.734 78.9686 535.646 78.6649C535.559 78.3612 535.54 78.042 535.59 77.73L538.32 55.95C538.415 55.27 538.749 54.646 539.262 54.1897C539.775 53.7335 540.434 53.4748 541.12 53.46H548.62L545.57 77.73Z" fill="white"/>
<path d="M291.24 29.96H281.24C278.486 30.0309 275.846 31.0737 273.787 32.9038C271.728 34.734 270.383 37.2335 269.99 39.96L265.29 77.45C265.09 78.7024 265.168 79.9834 265.519 81.2023C265.87 82.4211 266.484 83.5477 267.32 84.5022C268.155 85.4567 269.19 86.2156 270.351 86.725C271.513 87.2345 272.772 87.482 274.04 87.4499H294.04L294.98 79.94H277.48C277.164 79.9484 276.85 79.8871 276.561 79.7604C276.271 79.6337 276.013 79.4447 275.805 79.207C275.597 78.9692 275.444 78.6885 275.357 78.3848C275.269 78.0812 275.25 77.762 275.3 77.45L276.01 71.74H286.01C288.766 71.6714 291.408 70.6296 293.469 68.7993C295.53 66.9689 296.876 64.4681 297.27 61.74L299.99 39.96C300.192 38.7073 300.115 37.4255 299.765 36.2059C299.415 34.9863 298.8 33.8589 297.965 32.904C297.129 31.9491 296.093 31.1902 294.931 30.6813C293.769 30.1725 292.508 29.9262 291.24 29.96ZM287.24 61.74C287.141 62.4183 286.806 63.0401 286.294 63.4956C285.782 63.9511 285.125 64.2112 284.44 64.23H276.94L279.94 39.96C280.037 39.2808 280.371 38.6579 280.884 38.202C281.397 37.7461 282.054 37.4867 282.74 37.47H287.74C288.055 37.463 288.368 37.5255 288.656 37.6528C288.944 37.7802 289.201 37.9693 289.408 38.2069C289.615 38.4445 289.767 38.7246 289.854 39.0276C289.941 39.3305 289.96 39.6488 289.91 39.96L287.24 61.74Z" fill="white"/>
<path d="M621.07 30.24H611.07C608.316 30.3109 605.676 31.3537 603.617 33.1838C601.558 35.0139 600.213 37.5134 599.82 40.24L595.13 77.7299C594.93 78.9823 595.008 80.2635 595.359 81.4823C595.71 82.7011 596.324 83.8277 597.16 84.7822C597.995 85.7367 599.03 86.4956 600.191 87.005C601.353 87.5145 602.612 87.762 603.88 87.7299H623.88L624.82 80.2199H607.32C607.003 80.2298 606.688 80.1696 606.398 80.0436C606.107 79.9176 605.848 79.7288 605.638 79.4909C605.429 79.253 605.275 78.9717 605.187 78.6673C605.099 78.3629 605.08 78.0428 605.13 77.7299L605.85 72.02H615.85C618.604 71.951 621.245 70.9089 623.305 69.0784C625.364 67.2479 626.709 64.7473 627.1 62.02L629.83 40.24C630.03 38.9867 629.952 37.7047 629.601 36.4852C629.249 35.2656 628.634 34.1384 627.797 33.1838C626.961 32.2291 625.925 31.4704 624.762 30.9616C623.599 30.4528 622.339 30.2064 621.07 30.24ZM617.07 62.02C616.973 62.6991 616.639 63.322 616.126 63.7779C615.613 64.2338 614.956 64.4931 614.27 64.5099H606.77L609.77 40.24C609.867 39.5608 610.201 38.9379 610.714 38.482C611.227 38.0261 611.884 37.7667 612.57 37.7499H617.57C617.885 37.7433 618.198 37.8058 618.487 37.9331C618.776 38.0604 619.033 38.2493 619.241 38.4866C619.448 38.724 619.602 39.0039 619.69 39.3068C619.778 39.6097 619.798 39.9282 619.75 40.24L617.07 62.02Z" fill="white"/>
<path d="M725.31 72.02C728.066 71.9514 730.708 70.9096 732.769 69.0793C734.83 67.2489 736.176 64.7481 736.57 62.02L739.29 40.24C739.492 38.9882 739.415 37.7073 739.066 36.4884C738.716 35.2695 738.102 34.1427 737.268 33.188C736.433 32.2332 735.399 31.4741 734.238 30.9646C733.077 30.4551 731.818 30.2077 730.55 30.24H720.55C717.796 30.3109 715.156 31.3537 713.097 33.1838C711.038 35.014 709.693 37.5135 709.3 40.24L704.6 77.73C704.4 78.9824 704.478 80.2635 704.829 81.4823C705.18 82.7011 705.794 83.8277 706.63 84.7822C707.465 85.7367 708.5 86.4956 709.661 87.0051C710.823 87.5145 712.082 87.762 713.35 87.73H733.35L734.29 80.22H716.79C716.474 80.2284 716.16 80.1671 715.871 80.0404C715.581 79.9137 715.323 79.7247 715.115 79.487C714.907 79.2492 714.754 78.9685 714.666 78.6649C714.579 78.3612 714.56 78.042 714.61 77.73L715.33 72.02H725.31ZM719.31 40.24C719.403 39.5538 719.738 38.9236 720.256 38.4633C720.773 38.0029 721.438 37.7428 722.13 37.73H727.13C727.445 37.7231 727.758 37.7855 728.046 37.9128C728.334 38.0402 728.591 38.2293 728.798 38.4669C729.005 38.7045 729.157 38.9846 729.244 39.2876C729.331 39.5905 729.35 39.9088 729.3 40.22L726.58 62C726.481 62.6783 726.146 63.3001 725.634 63.7556C725.122 64.2111 724.465 64.4712 723.78 64.49H716.28L719.31 40.24Z" fill="white"/>
<path d="M467.34 40.24C467.434 39.5596 467.766 38.9345 468.276 38.4751C468.787 38.0158 469.444 37.7518 470.13 37.73H487.63L488.57 30.22H468.57C465.816 30.2909 463.176 31.3337 461.117 33.1638C459.058 34.994 457.713 37.4935 457.32 40.22L452.62 77.71C452.42 78.9624 452.498 80.2435 452.849 81.4623C453.2 82.6811 453.814 83.8077 454.65 84.7622C455.485 85.7167 456.52 86.4756 457.681 86.985C458.843 87.4945 460.102 87.742 461.37 87.71H481.37L482.31 80.2H464.81C464.495 80.2066 464.182 80.1441 463.893 80.0168C463.604 79.8895 463.347 79.7006 463.139 79.4633C462.932 79.226 462.778 78.946 462.69 78.6431C462.602 78.3402 462.582 78.0217 462.63 77.71L467.34 40.24Z" fill="white"/>
<path d="M360.3 37.47H370.74L371.68 29.9601H361.24L362.74 18.04H355.13C354.797 19.3544 354.314 20.6261 353.69 21.83C352.431 24.193 350.594 26.1986 348.35 27.66C346.872 28.6339 345.271 29.4074 343.59 29.9601L342.67 30.2401L341.76 37.47H350.26L345.26 77.47C345.06 78.7224 345.138 80.0035 345.489 81.2224C345.84 82.4412 346.454 83.5678 347.29 84.5223C348.125 85.4768 349.16 86.2357 350.321 86.7451C351.483 87.2546 352.742 87.5021 354.01 87.47H364.49L365.43 79.9601H357.43C357.115 79.9667 356.802 79.9042 356.513 79.7769C356.224 79.6496 355.967 79.4607 355.759 79.2234C355.552 78.986 355.398 78.7061 355.31 78.4032C355.222 78.1003 355.202 77.7817 355.25 77.47L360.3 37.47Z" fill="white"/>
<path d="M20.93 18.04H13.37C13.037 19.3544 12.5538 20.6261 11.93 21.83C10.6707 24.193 8.83362 26.1986 6.59003 27.66C5.10947 28.6356 3.50528 29.4091 1.82001 29.9601L0.910034 30.2401L0 37.47H8.5L3.5 77.47C3.29996 78.7224 3.37812 80.0035 3.72888 81.2224C4.07965 82.4412 4.69443 83.5678 5.5296 84.5223C6.36477 85.4768 7.39982 86.2357 8.56128 86.7451C9.72274 87.2546 10.9821 87.5021 12.25 87.47H22.73L23.67 79.9601H15.67C15.3541 79.9685 15.0403 79.9071 14.7508 79.7804C14.4613 79.6537 14.2033 79.4648 13.9952 79.2271C13.787 78.9893 13.6339 78.7086 13.5466 78.4049C13.4593 78.1012 13.4399 77.782 13.49 77.47L18.49 37.47H28.93L29.87 29.9601H19.44L20.93 18.04Z" fill="white"/>
<path d="M327.73 29.96H317.73C314.976 30.031 312.336 31.0737 310.277 32.9039C308.218 34.734 306.873 37.2335 306.48 39.96L300.53 87.45H310.53L316.48 39.96C316.577 39.2809 316.911 38.658 317.424 38.2021C317.936 37.7462 318.594 37.4868 319.28 37.47H324.28C324.595 37.4634 324.908 37.5259 325.197 37.6532C325.486 37.7805 325.743 37.9694 325.951 38.2067C326.158 38.444 326.312 38.724 326.4 39.0269C326.488 39.3298 326.508 39.6483 326.46 39.96L320.51 87.45H330.51L336.46 39.96C336.66 38.7093 336.582 37.43 336.232 36.2127C335.883 34.9954 335.27 33.8698 334.437 32.9157C333.604 31.9615 332.571 31.2022 331.412 30.6914C330.253 30.1807 328.996 29.931 327.73 29.96Z" fill="white"/>
<path d="M493.83 40.24L487.83 87.7299H497.83L504.1 37.7299H511.6C511.915 37.723 512.228 37.7855 512.516 37.9128C512.804 38.0402 513.061 38.2293 513.268 38.4669C513.475 38.7045 513.627 38.9846 513.714 39.2876C513.801 39.5905 513.82 39.9088 513.77 40.2199L507.77 87.7099H517.77L523.77 40.2199C523.972 38.9681 523.895 37.6872 523.546 36.4684C523.196 35.2495 522.582 34.1227 521.748 33.1679C520.913 32.2132 519.879 31.4541 518.718 30.9446C517.557 30.4351 516.298 30.1876 515.03 30.2199H505.03L506.72 16.71H496.72L493.83 40.24Z" fill="white"/>
<path d="M560.87 87.54H570.87L579.74 16.73H569.74L560.87 87.54Z" fill="white"/>
<path d="M577.35 87.73H587.35L596.25 16.73H586.25L577.35 87.73Z" fill="white"/>
<path d="M398.25 87.97C414.261 87.97 427.24 74.9907 427.24 58.98C427.24 42.9693 414.261 29.99 398.25 29.99C382.239 29.99 369.26 42.9693 369.26 58.98C369.26 74.9907 382.239 87.97 398.25 87.97Z" fill="black"/>
<mask id="mask0_121_179967" style="mask-type:luminance" maskUnits="userSpaceOnUse" x="373" y="33" width="51" height="51">
<path d="M398.25 83.98C412.057 83.98 423.25 72.7871 423.25 58.98C423.25 45.1729 412.057 33.98 398.25 33.98C384.443 33.98 373.25 45.1729 373.25 58.98C373.25 72.7871 384.443 83.98 398.25 83.98Z" fill="white"/>
</mask>
<g mask="url(#mask0_121_179967)">
<path d="M384.61 51.95C384.73 51.69 384.87 51.43 385.01 51.17C383.641 50.5363 382.436 49.5952 381.49 48.42C380.15 46.8302 379.339 44.8623 379.17 42.79C377.504 44.7553 376.154 46.9686 375.17 49.35C374.89 50.02 374.65 50.69 374.43 51.35C376.992 53.4682 379.725 55.3713 382.6 57.04C383.131 55.2916 383.803 53.5893 384.61 51.95Z" fill="#E56200"/>
<path d="M390.91 48.61C394.48 48.61 399.42 47.45 406.26 45.18C410.45 43.6575 415.049 43.7001 419.21 45.3C416.724 41.4797 413.238 38.4151 409.13 36.4399C403.36 37.4699 396.13 41.48 390.91 48.61Z" fill="#FF991F"/>
<path d="M407.42 48.66C399.69 51.23 393.42 52.75 388.64 52.16C388.38 52.63 388.13 53.1 387.89 53.58C387.059 55.2697 386.389 57.0342 385.89 58.85C389.666 60.7773 393.596 62.3862 397.64 63.66C406.64 66.52 414.71 67.85 421.74 67.66C423.038 64.1718 423.534 60.436 423.19 56.73C423.02 54.6511 422.184 52.6825 420.806 51.1169C419.427 49.5513 417.581 48.4722 415.54 48.04C412.826 47.5212 410.023 47.7352 407.42 48.66Z" fill="#FF991F"/>
<path d="M385.07 62.54C384.805 64.1942 384.658 65.865 384.63 67.54C386.745 69.3212 388.653 71.3337 390.32 73.54C392.038 75.7277 394.181 77.5455 396.62 78.8842C399.058 80.2229 401.742 81.0548 404.51 81.33C411.43 81.85 416.77 77.1401 420.02 71.4001C412.019 71.1973 404.093 69.7915 396.51 67.23C392.583 65.961 388.758 64.3931 385.07 62.54Z" fill="#FF991F"/>
<path d="M386.93 47.98C390.877 42.0073 396.459 37.2965 403.01 34.41C399.647 33.7583 396.186 33.8046 392.842 34.546C389.498 35.2875 386.342 36.7081 383.57 38.72C382.949 39.8864 382.69 41.2114 382.825 42.5258C382.961 43.8403 383.484 45.0846 384.33 46.1C385.015 46.946 385.912 47.5949 386.93 47.98Z" fill="#E56200"/>
<path d="M384.9 72.73C385.244 75.6123 385.888 78.4509 386.82 81.2C387.41 81.5 388.01 81.79 388.63 82.05C392.108 83.4986 395.868 84.1446 399.63 83.94C394.792 82.5744 390.517 79.6977 387.43 75.73C386.53 74.59 385.69 73.61 384.9 72.73Z" fill="#FF991F"/>
<path d="M376.89 64.3101C378.337 64.2761 379.771 64.5917 381.07 65.2301C381.178 63.7226 381.379 62.2231 381.67 60.7401C378.813 59.138 376.079 57.3264 373.49 55.3201C373.008 58.5772 373.175 61.8974 373.98 65.0901C374.878 64.6128 375.873 64.3461 376.89 64.3101Z" fill="#E56200"/>
<path d="M377.13 67.97C376.424 67.9777 375.743 68.2285 375.2 68.68C376.731 72.3356 379.11 75.5746 382.14 78.13C381.461 75.2531 381.076 72.3147 380.99 69.36C379.871 68.5215 378.527 68.0374 377.13 67.97Z" fill="#E56200"/>
</g>
</g>
<defs>
<clipPath id="clip0_121_179967">
<rect width="739.37" height="102.73" fill="white"/>
</clipPath>
</defs>
</svg>
